<?xml version="1.0" encoding="UTF-8"?>
<svg width="180" height="40" viewBox="0 0 180 40" fill="none" xmlns="http://www.w3.org/2000/svg">
  <!-- Circle logo element -->
  <circle cx="20" cy="20" r="18" fill="#000000" />
  <circle cx="20" cy="20" r="15" fill="#FFFFFF" />
  <path d="M20 5C11.7157 5 5 11.7157 5 20C5 28.2843 11.7157 35 20 35C28.2843 35 35 28.2843 35 20C35 11.7157 28.2843 5 20 5ZM20 32C13.3726 32 8 26.6274 8 20C8 13.3726 13.3726 8 20 8C26.6274 8 32 13.3726 32 20C32 26.6274 26.6274 32 20 32Z" fill="#000000"/>
  <path d="M20 12C15.5817 12 12 15.5817 12 20C12 24.4183 15.5817 28 20 28C24.4183 28 28 24.4183 28 20C28 15.5817 24.4183 12 20 12ZM20 25C17.2386 25 15 22.7614 15 20C15 17.2386 17.2386 15 20 15C22.7614 15 25 17.2386 25 20C25 22.7614 22.7614 25 20 25Z" fill="#000000"/>
  
  <!-- Text "Allbound" -->
  <path d="M50 15L52 25L54 15H57L59 25L61 15H64L60 30H57L55 20L53 30H50L46 15H50Z" fill="#000000"/>
  <path d="M65 15H68V30H65V15Z" fill="#000000"/>
  <path d="M70 15H73V27H80V30H70V15Z" fill="#000000"/>
  <path d="M81 15H84V27H91V30H81V15Z" fill="#000000"/>
  <path d="M92 15H99C101.2 15 103 16.8 103 19V26C103 28.2 101.2 30 99 30H92V15ZM95 18V27H99C99.6 27 100 26.6 100 26V19C100 18.4 99.6 18 99 18H95Z" fill="#000000"/>
  <path d="M104 19C104 16.8 105.8 15 108 15H112C114.2 15 116 16.8 116 19V26C116 28.2 114.2 30 112 30H108C105.8 30 104 28.2 104 26V19ZM107 19V26C107 26.6 107.4 27 108 27H112C112.6 27 113 26.6 113 26V19C113 18.4 112.6 18 112 18H108C107.4 18 107 18.4 107 19Z" fill="#000000"/>
  <path d="M117 15H120L124 24V15H127V30H124L120 21V30H117V15Z" fill="#000000"/>
  <path d="M129 15H136C138.2 15 140 16.8 140 19V22C140 24.2 138.2 26 136 26H132V30H129V15ZM132 18V23H136C136.6 23 137 22.6 137 22V19C137 18.4 136.6 18 136 18H132Z" fill="#000000"/>
  
  <!-- Text "vacations" -->
  <path d="M50 35L51.5 31H56.5L58 35H60L55 22H53L48 35H50ZM52 29L54 24L56 29H52Z" fill="#000000"/>
  <path d="M62 22C63.6569 22 65 23.3431 65 25V32C65 33.6569 63.6569 35 62 35H59V22H62ZM62 33C62.5523 33 63 32.5523 63 32V25C63 24.4477 62.5523 24 62 24H61V33H62Z" fill="#000000"/>
  <path d="M70 22C71.6569 22 73 23.3431 73 25V32C73 33.6569 71.6569 35 70 35H67C65.3431 35 64 33.6569 64 32V25C64 23.3431 65.3431 22 67 22H70ZM70 33C70.5523 33 71 32.5523 71 32V25C71 24.4477 70.5523 24 70 24H67C66.4477 24 66 24.4477 66 25V32C66 32.5523 66.4477 33 67 33H70Z" fill="#000000"/>
  <path d="M74 22H76V33H81V35H74V22Z" fill="#000000"/>
  <path d="M82 22H84V35H82V22Z" fill="#000000"/>
  <path d="M85 25C85 23.3431 86.3431 22 88 22H91C92.6569 22 94 23.3431 94 25V32C94 33.6569 92.6569 35 91 35H88C86.3431 35 85 33.6569 85 32V25ZM87 25V32C87 32.5523 87.4477 33 88 33H91C91.5523 33 92 32.5523 92 32V25C92 24.4477 91.5523 24 91 24H88C87.4477 24 87 24.4477 87 25Z" fill="#000000"/>
  <path d="M95 22H97V33H102V35H95V22Z" fill="#000000"/>
  <path d="M103 22H110V24H105V27H109V29H105V33H110V35H103V22Z" fill="#000000"/>
</svg>
